<svg width="260" height="217" viewBox="0 0 260 217" fill="none" xmlns="http://www.w3.org/2000/svg">
<g filter="url(#filter0_d_1288_2866)">
<path d="M7.60714 200.267C7.60714 203.99 5.92414 206.778 1.81014 208.495L1.01114 207.271C2.98314 206.489 4.27514 205.486 5.04014 204.245L1.28314 204.653L1.06214 203.293L5.63514 203.004C5.77114 202.562 5.87314 202.103 5.92414 201.61H1.72514V200.267H7.60714ZM12.0781 199.281H13.6761V208.121H12.0781V204.347H10.3611V208.019H8.79714V199.57H10.3611V202.987H12.0781V199.281ZM3.68014 208.801H13.6761V214.139H3.68014V208.801ZM12.0271 210.11H5.31214V212.813H12.0271V210.11ZM16.1415 200.76H24.4545V202.103H22.8735V209.141C23.5535 209.09 24.2165 209.039 24.8625 208.954L24.9815 210.161C21.9555 210.654 18.4705 210.739 15.8865 210.739L15.6995 209.345H17.5525V202.103H16.1415V200.76ZM26.6135 199.281H28.2625V214.326H26.6135V206.234H23.9615V204.874H26.6135V199.281ZM19.1845 209.311L21.2415 209.243V202.103H19.1845V209.311ZM36.5419 200.233H38.3099V201.372C38.3099 203.803 40.7749 206.115 43.7159 206.642L42.9679 208.019C40.5369 207.492 38.3949 205.945 37.4259 203.854C36.4399 205.928 34.2979 207.492 31.8839 208.019L31.1529 206.642C34.0599 206.098 36.5419 203.786 36.5419 201.372V200.233ZM30.6769 210.994H44.3109V212.354H30.6769V210.994ZM59.5343 199.281H61.2003V204.398H63.3083V205.775H61.2003V211.045H59.5343V199.281ZM51.5103 210.28H53.1933V212.66H61.7273V214.02H51.5103V210.28ZM49.3343 208.104C50.4733 208.104 51.7993 208.087 53.1933 208.053V206.999C51.5103 206.812 50.4563 205.996 50.4563 204.738C50.4563 203.293 51.8673 202.426 54.0093 202.426C56.1513 202.426 57.5793 203.293 57.5793 204.738C57.5793 205.979 56.5253 206.795 54.8593 206.999V207.968C56.1853 207.883 57.5113 207.764 58.7353 207.577L58.8713 208.75C55.6923 209.328 52.1223 209.396 49.5383 209.413L49.3343 208.104ZM49.7083 200.658H53.1933V199.213H54.8593V200.658H58.3103V201.882H49.7083V200.658ZM54.0093 203.582C52.7853 203.582 52.0373 204.007 52.0373 204.738C52.0373 205.469 52.7853 205.894 54.0093 205.894C55.2333 205.894 55.9983 205.469 55.9983 204.738C55.9983 204.007 55.2333 203.582 54.0093 203.582ZM71.3837 205.027H75.0897V203.242H71.5537C70.6017 205.639 68.3747 207.356 65.1277 208.291L64.4647 206.965C68.0177 205.979 70.0067 204.092 70.2617 201.712H65.2467V200.369H72.0807C72.0807 200.896 72.0297 201.406 71.9447 201.899H75.0897V199.281H76.7557V208.172H75.0897V206.37H71.3837V205.027ZM71.8257 208.342C74.8687 208.342 76.8407 209.464 76.8407 211.3C76.8407 213.119 74.8687 214.258 71.8257 214.258C68.7657 214.258 66.8107 213.119 66.8107 211.3C66.8107 209.464 68.7657 208.342 71.8257 208.342ZM71.8257 209.651C69.7517 209.651 68.4597 210.229 68.4597 211.3C68.4597 212.337 69.7517 212.949 71.8257 212.949C73.8997 212.949 75.1917 212.337 75.1917 211.3C75.1917 210.229 73.8997 209.651 71.8257 209.651ZM85.9701 199.536C89.3191 199.536 91.3251 200.437 91.3251 202.12C91.3251 203.786 89.3191 204.704 85.9701 204.704C82.6041 204.704 80.6151 203.786 80.6151 202.12C80.6151 200.437 82.6041 199.536 85.9701 199.536ZM85.9701 200.76C83.6241 200.76 82.3321 201.236 82.3321 202.12C82.3321 203.004 83.6241 203.463 85.9701 203.463C88.2991 203.463 89.5911 203.004 89.5911 202.12C89.5911 201.236 88.2991 200.76 85.9701 200.76ZM79.1701 205.605H92.7531V206.948H79.1701V205.605ZM80.7681 208.053H91.0531V211.623H82.4511V212.915H91.4781V214.19H80.8191V210.433H89.4041V209.311H80.7681V208.053ZM98.4055 200.777H106.837V202.171H103.454V203.684C103.454 206.183 105.052 208.767 107.364 209.77L106.429 211.096C104.695 210.297 103.335 208.665 102.638 206.693C101.941 208.801 100.581 210.62 98.8305 211.453L97.8785 210.144C100.173 209.056 101.771 206.251 101.771 203.684V202.171H98.4055V200.777ZM108.622 199.281H110.288V214.326H108.622V199.281ZM120.829 200.794C120.829 205.265 119.418 209.243 113.91 211.963L113.026 210.671C115.678 209.345 117.327 207.764 118.245 205.877L113.349 206.336L113.111 204.891L118.755 204.534C118.993 203.786 119.129 202.987 119.197 202.137H113.859V200.794H120.829ZM123.532 199.281H125.198V214.326H123.532V199.281ZM129.448 199.825H131.097V203.633H139.733V204.976H129.448V199.825ZM127.663 206.812H141.297V208.172H127.663V206.812ZM129.329 209.549H130.995V212.626H139.818V213.986H129.329V209.549ZM146.848 200.964H150.044V199.213H151.727V200.964H154.906V202.29H151.71V202.528C151.71 204.245 153.019 205.911 155.28 206.591L154.532 207.9C152.832 207.39 151.591 206.319 150.928 204.993C150.265 206.506 149.007 207.713 147.239 208.291L146.423 206.982C148.718 206.251 150.044 204.432 150.044 202.528V202.29H146.848V200.964ZM154.481 203.429H157.235V199.281H158.901V209.634H157.235V204.789H154.481V203.429ZM153.121 208.682H154.838V208.971C154.838 210.858 156.878 212.507 159.768 212.966L159.122 214.275C156.776 213.867 154.872 212.728 153.971 211.113C153.07 212.711 151.166 213.884 148.82 214.275L148.174 212.966C151.03 212.507 153.121 210.807 153.121 208.971V208.682ZM172.076 199.281H173.742V206.914H172.076V204.075H169.05V202.732H172.076V199.281ZM168.914 199.944C168.914 203.752 166.415 206.183 162.063 207.254L161.485 205.928C164.953 205.112 166.84 203.446 167.112 201.287H162.318V199.944H168.914ZM163.967 207.543H173.742V211.419H165.65V212.847H174.167V214.173H164.001V210.144H172.076V208.869H163.967V207.543ZM182.956 199.604C186.237 199.604 188.311 200.675 188.311 202.477C188.311 204.279 186.237 205.35 182.956 205.35C179.675 205.35 177.601 204.279 177.601 202.477C177.601 200.675 179.675 199.604 182.956 199.604ZM182.956 200.913C180.678 200.913 179.318 201.457 179.318 202.477C179.318 203.48 180.678 204.041 182.956 204.041C185.217 204.041 186.577 203.48 186.577 202.477C186.577 201.457 185.217 200.913 182.956 200.913ZM177.788 209.124H188.09V214.139H177.788V209.124ZM186.458 210.45H179.42V212.813H186.458V210.45ZM176.156 206.472H189.739V207.815H176.156V206.472ZM193.327 211.521L192.239 215.176H191.049L191.644 211.521H193.327ZM199.83 207.764H213.464V209.141H210.047V214.326H208.347V209.141H204.879V214.326H203.162V209.141H199.83V207.764ZM206.596 199.876C209.775 199.876 211.934 201.134 211.934 203.157C211.934 205.197 209.775 206.472 206.596 206.472C203.434 206.472 201.275 205.197 201.275 203.157C201.275 201.134 203.434 199.876 206.596 199.876ZM206.596 201.202C204.42 201.202 202.992 201.95 202.992 203.157C202.992 204.398 204.42 205.129 206.596 205.129C208.789 205.129 210.234 204.398 210.234 203.157C210.234 201.95 208.789 201.202 206.596 201.202ZM225.433 199.281H227.082V214.326H225.433V199.281ZM215.573 200.743H217.239V209.073C219.381 209.056 221.642 208.886 224.022 208.393L224.226 209.804C221.608 210.331 219.194 210.501 216.848 210.501H215.573V200.743ZM240.342 199.264H242.008V214.343H240.342V206.098H237.163V210.654H230.125V200.454H231.791V204.262H235.497V200.454H237.163V204.755H240.342V199.264ZM231.791 205.588V209.294H235.497V205.588H231.791ZM250.27 200.233H252.038V201.372C252.038 203.803 254.503 206.115 257.444 206.642L256.696 208.019C254.265 207.492 252.123 205.945 251.154 203.854C250.168 205.928 248.026 207.492 245.612 208.019L244.881 206.642C247.788 206.098 250.27 203.786 250.27 201.372V200.233ZM244.405 210.994H258.039V212.354H244.405V210.994Z" fill="black"/>
</g>
<ellipse cx="124.362" cy="74" rx="48" ry="47" fill="url(#paint0_linear_1288_2866)"/>
<path d="M82.8883 69.5C79.8887 63.0712 90.3895 44.5 97.3905 39C100.591 42.6 108.224 45.1667 110.89 45.5C111.39 46 112.39 46.5 111.39 49C110.077 52.2827 104.89 51.5 100.89 54C96.8901 56.5 99.8901 59 95.3901 59.5C90.8901 60 89.3901 62.5 87.8901 64.5C86.3901 66.5 87.9314 80.3082 82.8883 69.5Z" fill="url(#paint1_linear_1288_2866)"/>
<path d="M162.933 68.9999C160.533 63.3999 167.268 62.3332 170.435 62.4999C173.634 68.8999 171.863 81.9999 170.435 86.4999C168.935 84.9999 166.034 80.2999 166.434 77.4999C166.934 73.9999 165.933 75.9999 162.933 68.9999Z" fill="url(#paint2_linear_1288_2866)"/>
<path d="M102.121 100.5C97.3209 94.9001 98.1209 92.1668 99.1209 91.5001C101.621 89.0001 110.121 93.5001 113.121 94.5001C116.121 95.5001 119.121 98.5001 116.121 101.5C113.721 103.9 113.788 107.167 114.121 108.5C114.454 109.5 114.821 111.6 113.621 112C112.121 112.5 108.121 107.5 102.121 100.5Z" fill="url(#paint3_linear_1288_2866)"/>
<path d="M153.362 20L151.362 21L154.362 30C152.362 34 155.862 34.5 155.362 35C154.862 35.5 154.362 43.5 155.362 46.5C156.162 48.9 160.029 48.1667 161.862 47.5C163.196 47 165.862 45.4 165.862 43C165.862 40.6 161.529 35.6667 159.362 33.5C160.22 30.3 157.72 29.1667 156.362 29L153.362 20Z" fill="url(#paint4_linear_1288_2866)" stroke="url(#paint5_linear_1288_2866)"/>
<path d="M157.362 39C157.696 41 158.462 45.2 158.862 46" stroke="#E29626" stroke-linecap="round"/>
<path d="M161.862 45C161.529 43 160.762 38.8 160.362 38" stroke="#E29626" stroke-linecap="round"/>
<circle cx="155.362" cy="31" r="1" fill="#EEC55B" fill-opacity="0.5"/>
<path d="M149.826 20.637V34.895C149.828 35.4188 149.612 35.9248 149.219 36.3176C145.791 39.6906 137.416 46.0695 123.124 46.0695C108.832 46.0695 100.463 39.6906 97.0278 36.3176C96.6354 35.9248 96.4195 35.4188 96.4209 34.895V20.637" fill="url(#paint6_linear_1288_2866)"/>
<path d="M89.6713 19.7501C87.2697 18.7032 87.2697 15.2968 89.6713 14.2499L121.164 0.522536C121.928 0.18932 122.797 0.189319 123.561 0.522535L155.053 14.2499C157.455 15.2968 157.455 18.7032 155.053 19.7501L123.561 33.4775C122.797 33.8107 121.928 33.8107 121.164 33.4775L89.6713 19.7501Z" fill="url(#paint7_linear_1288_2866)"/>
<path d="M195.04 71.6366C194.702 70.8766 193.661 70.8396 193.253 71.5226L193.194 71.6366L192.152 73.9816C191.242 76.0285 189.729 77.7489 187.815 78.9126L187.493 79.1016L185.643 80.1416C185.496 80.2239 185.372 80.3418 185.282 80.4844C185.192 80.627 185.139 80.7898 185.128 80.958C185.117 81.1262 185.149 81.2944 185.22 81.4474C185.291 81.6003 185.399 81.7331 185.534 81.8336L185.642 81.9036L187.493 82.9436C189.445 84.042 191.016 85.7103 191.995 87.7256L192.152 88.0636L193.194 90.4086C193.532 91.1686 194.573 91.2056 194.981 90.5226L195.04 90.4086L196.082 88.0636C196.992 86.0167 198.505 84.2963 200.419 83.1326L200.741 82.9436L202.591 81.9036C202.738 81.8213 202.862 81.7034 202.952 81.5609C203.042 81.4183 203.094 81.2554 203.105 81.0872C203.116 80.919 203.085 80.7508 203.014 80.5979C202.943 80.4449 202.835 80.3121 202.7 80.2116L202.592 80.1416L200.741 79.1016C198.788 78.0033 197.217 76.3349 196.239 74.3196L196.082 73.9816L195.04 71.6366ZM185.896 71.1436C185.4 72.2713 184.553 73.209 183.482 73.8176C183.322 73.9076 183.322 74.1376 183.482 74.2276C184.554 74.8363 185.4 75.7744 185.897 76.9026C185.916 76.9451 185.947 76.9811 185.986 77.0064C186.025 77.0318 186.07 77.0452 186.117 77.0452C186.163 77.0452 186.209 77.0318 186.248 77.0064C186.287 76.9811 186.318 76.9451 186.337 76.9026C186.833 75.7748 187.68 74.8371 188.752 74.2286C188.788 74.208 188.818 74.1781 188.839 74.1421C188.86 74.1061 188.871 74.0652 188.871 74.0236C188.871 73.982 188.86 73.9411 188.839 73.9051C188.818 73.8691 188.788 73.8392 188.752 73.8186C187.68 73.2096 186.833 72.2712 186.337 71.1426C186.318 71.1001 186.287 71.0641 186.248 71.0388C186.209 71.0135 186.163 71 186.117 71C186.07 71 186.025 71.0135 185.986 71.0388C185.947 71.0641 185.916 71.1001 185.897 71.1426L185.896 71.1436Z" fill="url(#paint8_linear_1288_2866)"/>
<path d="M56.8086 35.0938C60.3674 28.9298 75.0777 30.1665 94.6309 37.0996C93.8588 37.6968 93.1057 38.3164 92.373 38.958C89.2459 37.8811 86.2571 36.9571 83.4336 36.1963C76.458 34.3168 70.6349 33.4629 66.3066 33.6299C61.8305 33.8027 59.74 35.0164 58.9736 36.3438C58.2074 37.6711 58.2018 40.0881 60.29 44.0508C62.3096 47.8826 65.9607 52.4984 71.0762 57.5996C81.2805 67.7755 96.8992 79.4777 115.519 90.2275C134.137 100.977 152.08 108.652 165.994 112.401C172.97 114.281 178.793 115.135 183.121 114.968C187.597 114.795 189.688 113.581 190.454 112.254C191.22 110.927 191.226 108.51 189.138 104.547C187.118 100.715 183.467 96.0993 178.352 90.998C176.197 88.8494 173.8 86.6334 171.186 84.3721C171.399 83.4436 171.587 82.5051 171.743 81.5566C187.671 95.1014 196.195 107.31 192.619 113.504C186.85 123.497 151.772 114.045 114.269 92.3926L112.519 91.374C75.9685 69.9415 51.1295 44.9304 56.8086 35.0938Z" fill="url(#paint9_linear_1288_2866)"/>
<path d="M34.2574 172.35C32.4241 173.45 30.4074 174 28.2074 174C26.0408 174 24.0241 173.45 22.1574 172.35C20.2908 171.283 18.8074 169.817 17.7074 167.95C16.6408 166.083 16.1074 164.067 16.1074 161.9V137.9H24.6074V161.9C24.6074 162.833 24.9574 163.683 25.6574 164.45C26.4241 165.15 27.2741 165.5 28.2074 165.5C29.1408 165.5 29.9908 165.15 30.7574 164.45C31.4574 163.75 31.8074 162.9 31.8074 161.9V137.9H40.3074V161.9C40.3074 164.067 39.7574 166.083 38.6574 167.95C37.5908 169.817 36.1241 171.283 34.2574 172.35ZM51.9801 138.05L60.9301 157.2V138.05H69.5801V174H60.9301L51.9801 156.05V174H43.3301V138.05H51.9801ZM80.1016 138.25V174H71.6016V138.25H80.1016ZM100.35 174H92.1496L81.0996 138.1H89.9996L96.2496 157.8L102.5 138.1H111.4L100.35 174ZM131.422 146.6H121.922V151.8H130.272V160.3H121.922V165.5H131.422V174H113.422V138.1H131.422V146.6ZM163.743 174.5H154.843L153.193 169.45H143.993L142.343 174.5H133.443L144.493 139.1H152.693L163.743 174.5ZM150.443 160.8L148.593 155.1L146.743 160.8H150.443ZM180.266 150.05C180.266 149.083 179.999 148.267 179.466 147.6C178.966 146.9 178.416 146.55 177.816 146.55H174.416V153.6H177.816C178.416 153.6 178.966 153.267 179.466 152.6C179.999 151.9 180.266 151.067 180.266 150.1V150.05ZM165.766 138.05H177.816C179.782 138.05 181.599 138.6 183.266 139.7C184.966 140.767 186.299 142.217 187.266 144.05C188.266 145.883 188.766 147.883 188.766 150.05V150.1C188.766 151.967 188.399 153.717 187.666 155.35C186.932 156.983 185.916 158.367 184.616 159.5L189.116 173.75H180.166L176.416 162.1H174.416V174H165.766V138.05ZM213.571 146.45H206.421V173.7H197.771V146.45H190.621L192.621 137.8H213.571V146.45ZM225.047 138.25V151.8H233.397V138.25H241.897V174H233.397V160.3H225.047V174H216.547V138.25H225.047Z" fill="url(#paint10_linear_1288_2866)"/>
<defs>
<filter id="filter0_d_1288_2866" x="0.0107422" y="198.213" width="259.028" height="17.9631" filterUnits="userSpaceOnUse" color-interpolation-filters="sRGB">
<feFlood flood-opacity="0" result="BackgroundImageFix"/>
<feColorMatrix in="SourceAlpha" type="matrix" values="0 0 0 0 0 0 0 0 0 0 0 0 0 0 0 0 0 0 127 0" result="hardAlpha"/>
<feOffset/>
<feGaussianBlur stdDeviation="0.5"/>
<feComposite in2="hardAlpha" operator="out"/>
<feColorMatrix type="matrix" values="0 0 0 0 0.0784314 0 0 0 0 0.705882 0 0 0 0 0.439216 0 0 0 0.5 0"/>
<feBlend mode="normal" in2="BackgroundImageFix" result="effect1_dropShadow_1288_2866"/>
<feBlend mode="normal" in="SourceGraphic" in2="effect1_dropShadow_1288_2866" result="shape"/>
</filter>
<linearGradient id="paint0_linear_1288_2866" x1="124.362" y1="27" x2="124.362" y2="121" gradientUnits="userSpaceOnUse">
<stop stop-color="#2CD7D4"/>
<stop offset="1" stop-color="#88EFFF"/>
</linearGradient>
<linearGradient id="paint1_linear_1288_2866" x1="97.0902" y1="39" x2="97.0902" y2="73.5895" gradientUnits="userSpaceOnUse">
<stop stop-color="#2CD7A6"/>
<stop offset="1" stop-color="#59D385"/>
</linearGradient>
<linearGradient id="paint2_linear_1288_2866" x1="167.328" y1="62.4839" x2="167.328" y2="86.4999" gradientUnits="userSpaceOnUse">
<stop stop-color="#2CD7A6"/>
<stop offset="1" stop-color="#59D385"/>
</linearGradient>
<linearGradient id="paint3_linear_1288_2866" x1="107.863" y1="90.7539" x2="107.863" y2="112.035" gradientUnits="userSpaceOnUse">
<stop stop-color="#2CD7A6"/>
<stop offset="1" stop-color="#59D385"/>
</linearGradient>
<linearGradient id="paint4_linear_1288_2866" x1="155.362" y1="40" x2="161.862" y2="37" gradientUnits="userSpaceOnUse">
<stop offset="0.582927" stop-color="#E5A52C"/>
<stop offset="1" stop-color="#D28220"/>
</linearGradient>
<linearGradient id="paint5_linear_1288_2866" x1="155.362" y1="40" x2="161.862" y2="37" gradientUnits="userSpaceOnUse">
<stop offset="0.582927" stop-color="#E5A52C"/>
<stop offset="1" stop-color="#D28220"/>
</linearGradient>
<linearGradient id="paint6_linear_1288_2866" x1="123.124" y1="20.637" x2="123.124" y2="46.0695" gradientUnits="userSpaceOnUse">
<stop stop-color="#3B4040"/>
<stop offset="1" stop-color="#405151"/>
</linearGradient>
<linearGradient id="paint7_linear_1288_2866" x1="122.362" y1="0" x2="122.362" y2="34" gradientUnits="userSpaceOnUse">
<stop stop-color="#3F504F"/>
<stop offset="1" stop-color="#405151"/>
</linearGradient>
<linearGradient id="paint8_linear_1288_2866" x1="193.235" y1="71" x2="193.235" y2="91.0082" gradientUnits="userSpaceOnUse">
<stop stop-color="#2CD7A6"/>
<stop offset="1" stop-color="#59D385"/>
</linearGradient>
<linearGradient id="paint9_linear_1288_2866" x1="190.862" y1="114.5" x2="181.202" y2="21.09" gradientUnits="userSpaceOnUse">
<stop stop-color="#2CD7A6"/>
<stop offset="1" stop-color="#59D385"/>
</linearGradient>
<linearGradient id="paint10_linear_1288_2866" x1="129" y1="138" x2="129" y2="174.5" gradientUnits="userSpaceOnUse">
<stop stop-color="#2CD7A6"/>
<stop offset="1" stop-color="#59D385"/>
</linearGradient>
</defs>
</svg>
