<svg width="22" height="22" viewBox="0 0 22 22" fill="none" xmlns="http://www.w3.org/2000/svg">
<path fill-rule="evenodd" clip-rule="evenodd" d="M13.8209 1.40332C14.7194 0.504788 15.9381 0 17.2088 0C18.4795 0 19.6982 0.504788 20.5967 1.40332C21.4952 2.30184 22 3.52051 22 4.79122C22 6.06193 21.4952 7.2806 20.5967 8.17913L10.8903 17.8855C10.3358 18.4401 10.0104 18.7654 9.64611 19.0489C9.21771 19.3845 8.75726 19.6693 8.26475 19.9033C7.84932 20.1007 7.41138 20.2471 6.66851 20.4947L3.25912 21.6305L2.43849 21.9047C2.11211 22.0137 1.76183 22.0295 1.42693 21.9506C1.09203 21.8716 0.785757 21.7009 0.54245 21.4576C0.299144 21.2142 0.128429 20.908 0.0494491 20.5731C-0.029531 20.2382 -0.0136529 19.8879 0.0953026 19.5615L1.50531 15.3325C1.75293 14.5886 1.89925 14.1507 2.09674 13.7342C2.3314 13.2431 2.61619 12.7826 2.95113 12.3529C3.23354 11.9906 3.55995 11.6642 4.11454 11.1097L13.8209 1.40332ZM3.22331 20.0261L6.1303 19.056C6.93967 18.7859 7.28347 18.6703 7.60374 18.5178C7.99393 18.3309 8.35991 18.1048 8.70167 17.8394C8.98101 17.6204 9.23886 17.3657 9.84257 16.762L17.5884 9.01613C16.5264 8.63981 15.5624 8.02999 14.7674 7.23162C13.9697 6.4364 13.3606 5.47239 12.9849 4.41058L5.23907 12.1564C4.63536 12.7591 4.37955 13.0159 4.16161 13.2963C3.89557 13.6374 3.66944 14.0033 3.48321 14.3942C3.33075 14.7145 3.21512 15.0583 2.94499 15.8677L1.97497 18.7767L3.22331 20.0261ZM14.2281 3.16531C14.2639 3.34438 14.3223 3.58791 14.4215 3.87134C14.7208 4.72783 15.2107 5.50522 15.854 6.14495C16.4935 6.78819 17.2705 7.27799 18.1266 7.57747C18.4111 7.67672 18.6546 7.73505 18.8337 7.77086L19.511 7.09348C20.1181 6.48215 20.4581 5.65513 20.4566 4.79358C20.4551 3.93204 20.1122 3.10621 19.503 2.497C18.8938 1.8878 18.068 1.54488 17.2064 1.54337C16.3449 1.54187 15.5178 1.88189 14.9065 2.48896L14.2281 3.16531Z" fill="white"/>
</svg>
