<svg width="21" height="25" viewBox="0 0 21 25" fill="none" xmlns="http://www.w3.org/2000/svg">
<path d="M2.72705 4.4541L3.8066 21.7268C3.85787 22.7249 4.58387 23.4541 5.53387 23.4541H15.4657C16.4195 23.4541 17.132 22.7249 17.193 21.7268L18.2725 4.4541" stroke="#FD7565" stroke-width="2" stroke-linecap="round" stroke-linejoin="round"/>
<path d="M1 4.4541H20" stroke="#FD7565" stroke-width="2" stroke-miterlimit="10" stroke-linecap="round"/>
<path d="M7.04559 4.45455V2.29546C7.04509 2.1252 7.07826 1.95652 7.14318 1.79912C7.20811 1.64172 7.30351 1.49872 7.42391 1.37832C7.5443 1.25793 7.68731 1.16253 7.8447 1.0976C8.0021 1.03267 8.17078 0.999507 8.34104 1.00001H12.6592C12.8295 0.999507 12.9982 1.03267 13.1556 1.0976C13.313 1.16253 13.456 1.25793 13.5764 1.37832C13.6968 1.49872 13.7922 1.64172 13.8571 1.79912C13.922 1.95652 13.9552 2.1252 13.9547 2.29546V4.45455M10.5001 7.9091V20M6.61377 7.9091L7.04559 20M14.3865 7.9091L13.9547 20" stroke="#FD7565" stroke-width="2" stroke-linecap="round" stroke-linejoin="round"/>
</svg>
