<svg width="16" height="22" viewBox="0 0 16 22" fill="none" xmlns="http://www.w3.org/2000/svg">
<path d="M8 0.5C8.14969 0.5 8.29537 0.544831 8.41895 0.62793L8.53418 0.723633L15.2441 7.49316L15.251 7.49902L15.2568 7.50488C15.3315 7.57507 15.3918 7.66023 15.4336 7.75488C15.4754 7.84951 15.4982 7.95178 15.5 8.05566C15.5018 8.15958 15.4828 8.26324 15.4443 8.35938C15.4058 8.45536 15.3485 8.54247 15.2764 8.61523C15.2042 8.68798 15.1184 8.7449 15.0244 8.7832C14.9303 8.82153 14.8297 8.84067 14.7285 8.83887C14.6273 8.83707 14.5273 8.81413 14.4346 8.77246C14.342 8.7308 14.2581 8.67102 14.1885 8.5957L14.1826 8.58887L14.1768 8.58301L9.61328 3.97949L8.75781 3.11719V20.7305C8.75781 20.9359 8.67686 21.1324 8.53418 21.2764C8.39167 21.42 8.19954 21.5 8 21.5C7.80046 21.5 7.60833 21.42 7.46582 21.2764C7.32314 21.1324 7.24219 20.9359 7.24219 20.7305V3.11719L6.38672 3.97949L1.82324 8.58301L1.81738 8.58887L1.81152 8.5957C1.74194 8.67102 1.65802 8.7308 1.56543 8.77246C1.47272 8.81413 1.37266 8.83707 1.27148 8.83887C1.17032 8.84067 1.06965 8.82153 0.975586 8.7832C0.881614 8.7449 0.795781 8.68798 0.723633 8.61523C0.651504 8.54247 0.59415 8.45536 0.555664 8.35938C0.517173 8.26324 0.498183 8.15958 0.5 8.05566C0.50183 7.95179 0.524611 7.84951 0.566406 7.75488C0.608213 7.66023 0.668495 7.57507 0.743164 7.50488L0.749023 7.49902L0.755859 7.49316L7.46582 0.723633C7.60833 0.58005 7.8005 0.5 8 0.5Z" fill="#9E9E9E" stroke="#9E9E9E"/>
</svg>
