<svg width="30" height="26" viewBox="0 0 30 26" fill="none" xmlns="http://www.w3.org/2000/svg">
<g filter="url(#filter0_d_342_1679)">
<path d="M24.0001 10.5752V16.2042C24.0006 16.411 23.9253 16.6108 23.7886 16.7659C22.5934 18.0975 19.6742 20.6159 14.6924 20.6159C9.71072 20.6159 6.79361 18.0975 5.59631 16.7659C5.45954 16.6108 5.38429 16.411 5.38477 16.2042V10.5752" fill="black"/>
<path d="M24.0001 10.5752V16.2042C24.0006 16.411 23.9253 16.6108 23.7886 16.7659C22.5934 18.0975 19.6742 20.6159 14.6924 20.6159C9.71072 20.6159 6.79361 18.0975 5.59631 16.7659C5.45954 16.6108 5.38429 16.411 5.38477 16.2042V10.5752" stroke="#616161" stroke-width="1.5" stroke-linecap="round" stroke-linejoin="round"/>
<path d="M2 8.76922L14.6923 2L27.3846 8.76922L14.6923 15.5384L2 8.76922Z" fill="black" stroke="#616161" stroke-width="1.5" stroke-linecap="round" stroke-linejoin="round"/>
<path d="M14.6924 8.76904L20.6154 11.9284V23.9998" stroke="#FFDE71" stroke-width="1.5" stroke-linecap="round" stroke-linejoin="round"/>
</g>
<defs>
<filter id="filter0_d_342_1679" x="0.25" y="0.25" width="28.8848" height="25.5" filterUnits="userSpaceOnUse" color-interpolation-filters="sRGB">
<feFlood flood-opacity="0" result="BackgroundImageFix"/>
<feColorMatrix in="SourceAlpha" type="matrix" values="0 0 0 0 0 0 0 0 0 0 0 0 0 0 0 0 0 0 127 0" result="hardAlpha"/>
<feOffset/>
<feGaussianBlur stdDeviation="0.5"/>
<feComposite in2="hardAlpha" operator="out"/>
<feColorMatrix type="matrix" values="0 0 0 0 1 0 0 0 0 1 0 0 0 0 1 0 0 0 0.5 0"/>
<feBlend mode="normal" in2="BackgroundImageFix" result="effect1_dropShadow_342_1679"/>
<feBlend mode="normal" in="SourceGraphic" in2="effect1_dropShadow_342_1679" result="shape"/>
</filter>
</defs>
</svg>
