<svg width="80" height="80" viewBox="0 0 80 80" fill="none" xmlns="http://www.w3.org/2000/svg">
<g filter="url(#filter0_d_342_1671)">
<path d="M34.5957 7.24351C35.3046 6.53238 36.1469 5.96815 37.0742 5.58316C38.0016 5.19817 38.9959 5 40 5C41.0041 5 41.9984 5.19817 42.9258 5.58316C43.8531 5.96815 44.6954 6.53238 45.4043 7.24351L48.9359 10.7819C50.371 12.2169 52.3171 13.0219 54.3437 13.0219H59.3454C60.3489 13.0205 61.3429 13.217 62.2703 13.6003C63.1977 13.9835 64.0404 14.546 64.7502 15.2553C65.4599 15.9647 66.0228 16.8071 66.4065 17.7343C66.7902 18.6615 66.9872 19.6552 66.9863 20.6586L66.9828 25.66C66.9828 27.69 67.7878 29.6324 69.2229 31.0674L72.7581 34.6023C73.4687 35.311 74.0326 36.153 74.4173 37.08C74.802 38.007 75 39.0007 75 40.0044C75 41.008 74.802 42.0018 74.4173 42.9288C74.0326 43.8558 73.4687 44.6977 72.7581 45.4065L69.2229 48.9379C67.7878 50.3729 66.9828 52.3188 66.9828 54.3452V59.3466C66.9842 60.35 66.7876 61.3439 66.4043 62.2712C66.021 63.1986 65.4586 64.0413 64.7492 64.751C64.0397 65.4607 63.1973 66.0235 62.27 66.4071C61.3428 66.7908 60.3489 66.9878 59.3454 66.9869L54.3437 66.9834C52.3136 66.9834 50.371 67.7884 48.9359 69.2234L45.4008 72.7583C44.692 73.4688 43.8499 74.0326 42.9229 74.4173C41.9958 74.802 41.002 75 39.9982 75C38.9945 75 38.0007 74.802 37.0736 74.4173C36.1466 74.0326 35.3045 73.4688 34.5957 72.7583L31.0641 69.2234C30.3545 68.5125 29.5115 67.9486 28.5835 67.5643C27.6555 67.1799 26.6608 66.9825 25.6563 66.9834H20.6546C19.6511 66.9848 18.6571 66.7882 17.7297 66.405C16.8023 66.0217 15.9596 65.4593 15.2498 64.7499C14.5401 64.0406 13.9772 63.1982 13.5935 62.271C13.2098 61.3438 13.0128 60.35 13.0137 59.3466L13.0172 54.3452C13.0172 52.3153 12.2122 50.3729 10.7771 48.9379L7.24192 45.403C6.53127 44.6942 5.96744 43.8523 5.58273 42.9253C5.19802 41.9983 5 41.0045 5 40.0009C5 38.9972 5.19802 38.0035 5.58273 37.0765C5.96744 36.1495 6.53127 35.3075 7.24192 34.5988L10.7771 31.0674C12.2122 29.6324 13.0172 27.6865 13.0172 25.66V20.6586C13.0158 19.6555 13.2123 18.6619 13.5953 17.7348C13.9784 16.8077 14.5405 15.9652 15.2496 15.2555C15.9587 14.5459 16.8007 13.983 17.7275 13.5991C18.6544 13.2152 19.6479 13.0179 20.6511 13.0184L25.6528 13.0219C27.6829 13.0219 29.6255 12.2169 31.0606 10.7819L34.5957 7.24351Z" fill="url(#paint0_linear_342_1671)"/>
</g>
<defs>
<filter id="filter0_d_342_1671" x="0" y="0" width="80" height="80" filterUnits="userSpaceOnUse" color-interpolation-filters="sRGB">
<feFlood flood-opacity="0" result="BackgroundImageFix"/>
<feColorMatrix in="SourceAlpha" type="matrix" values="0 0 0 0 0 0 0 0 0 0 0 0 0 0 0 0 0 0 127 0" result="hardAlpha"/>
<feOffset/>
<feGaussianBlur stdDeviation="2.5"/>
<feComposite in2="hardAlpha" operator="out"/>
<feColorMatrix type="matrix" values="0 0 0 0 1 0 0 0 0 1 0 0 0 0 1 0 0 0 0.5 0"/>
<feBlend mode="normal" in2="BackgroundImageFix" result="effect1_dropShadow_342_1671"/>
<feBlend mode="normal" in="SourceGraphic" in2="effect1_dropShadow_342_1671" result="shape"/>
</filter>
<linearGradient id="paint0_linear_342_1671" x1="40" y1="5" x2="40" y2="75" gradientUnits="userSpaceOnUse">
<stop stop-color="#2CD7A6"/>
<stop offset="1" stop-color="#59D385"/>
</linearGradient>
</defs>
</svg>
