<svg width="32" height="25" viewBox="0 0 32 25" fill="none" xmlns="http://www.w3.org/2000/svg">
<path d="M28.9341 2.27305H23.1856V0H8.81437V2.27305H3.06587C2.25275 2.27305 1.47293 2.59236 0.897972 3.16073C0.32301 3.72911 0 4.49999 0 5.30379V21.0257C0 21.8295 0.32301 22.6004 0.897972 23.1688C1.47293 23.7372 2.25275 24.0565 3.06587 24.0565H28.9341C29.7473 24.0565 30.5271 23.7372 31.102 23.1688C31.677 22.6004 32 21.8295 32 21.0257V5.30379C32 4.49999 31.677 3.72911 31.102 3.16073C30.5271 2.59236 29.7473 2.27305 28.9341 2.27305ZM15.9992 22.3517C10.8762 22.3517 6.70965 18.2299 6.70965 13.1655C6.70965 8.10116 10.8762 3.97936 15.9992 3.97936C21.1223 3.97936 25.2919 8.10116 25.2919 13.1655C25.2919 18.2299 21.1223 22.3486 15.9992 22.3486V22.3517ZM15.9992 7.00858C15.1812 7.00868 14.3712 7.16805 13.6155 7.47759C12.8598 7.78714 12.1732 8.2408 11.5948 8.81266C11.0165 9.38453 10.5577 10.0634 10.2448 10.8105C9.93184 11.5577 9.77082 12.3584 9.77092 13.167C9.77102 13.9757 9.93224 14.7764 10.2454 15.5234C10.5585 16.2705 11.0174 16.9492 11.5959 17.521C12.1744 18.0927 12.8612 18.5462 13.6169 18.8555C14.3727 19.1649 15.1828 19.3241 16.0008 19.324C17.653 19.3238 19.2375 18.6747 20.4057 17.5197C21.5739 16.3646 22.23 14.7981 22.2298 13.1648C22.2296 11.5314 21.5731 9.96509 20.4046 8.8103C19.2362 7.6555 17.6515 7.00686 15.9992 7.00706V7.00858Z" fill="#9E9E9E"/>
</svg>
