<svg width="23" height="20" viewBox="0 0 23 20" fill="none" xmlns="http://www.w3.org/2000/svg">
<path fill-rule="evenodd" clip-rule="evenodd" d="M4.67916 2.01992C2.90442 2.82986 1.60465 4.75748 1.60465 7.05588C1.60465 9.40343 2.56744 11.2135 3.9453 12.765C5.08247 14.043 6.45819 15.1029 7.79967 16.1351C8.11918 16.3809 8.43476 16.626 8.74642 16.8703C9.30912 17.3137 9.81084 17.7016 10.2954 17.9848C10.78 18.2679 11.1684 18.3961 11.5 18.3961C11.8316 18.3961 12.221 18.2679 12.7046 17.9848C13.1892 17.7016 13.6909 17.3137 14.2536 16.8703C14.5652 16.6252 14.8808 16.3805 15.2003 16.1362C16.5418 15.1019 17.9175 14.043 19.0547 12.765C20.4336 11.2135 21.3953 9.40343 21.3953 7.05588C21.3953 4.75855 20.0956 2.82986 18.3208 2.01992C16.5964 1.23241 14.2793 1.44078 12.0777 3.72635C12.0028 3.80391 11.9131 3.86561 11.8138 3.90774C11.7146 3.94988 11.6078 3.9716 11.5 3.9716C11.3922 3.9716 11.2854 3.94988 11.1862 3.90774C11.0869 3.86561 10.9972 3.80391 10.9223 3.72635C8.72074 1.44078 6.40363 1.23241 4.67916 2.01992ZM11.5 2.05838C9.0267 -0.153464 6.25707 -0.463337 4.01163 0.561379C1.64316 1.64593 0 4.15911 0 7.05695C0 9.90457 1.18744 12.078 2.74609 13.8303C3.99344 15.2333 5.52 16.4076 6.86898 17.4441C7.17564 17.6792 7.47019 17.9078 7.7526 18.1301C8.3014 18.5618 8.88977 19.0212 9.48563 19.3696C10.0815 19.7179 10.7619 20 11.5 20C12.2381 20 12.9185 19.7168 13.5144 19.3696C14.1113 19.0212 14.6986 18.5618 15.2474 18.1301C15.5298 17.9078 15.8244 17.6792 16.131 17.4441C17.4789 16.4076 19.0066 15.2322 20.2539 13.8303C21.8126 12.078 23 9.90457 23 7.05695C23 4.15911 21.3579 1.64593 18.9884 0.563517C16.7429 -0.462268 13.9733 -0.152396 11.5 2.05838Z" fill="black"/>
</svg>
