<svg width="22" height="16" viewBox="0 0 22 16" fill="none" xmlns="http://www.w3.org/2000/svg">
<path d="M8.93472 13.8213C9.05943 13.9365 9.15945 14.0754 9.22883 14.2297C9.2982 14.3841 9.33551 14.5507 9.33851 14.7196C9.34152 14.8885 9.31017 15.0564 9.24633 15.213C9.18249 15.3697 9.08747 15.512 8.96694 15.6315C8.84641 15.751 8.70284 15.8451 8.54479 15.9084C8.38674 15.9717 8.21745 16.0028 8.04702 15.9998C7.8766 15.9968 7.70852 15.9598 7.55282 15.8911C7.39712 15.8223 7.25699 15.7232 7.14078 15.5995L0.371209 8.88913C0.133512 8.65321 0 8.33342 0 8C0 7.66657 0.133512 7.34678 0.371209 7.11087L7.14078 0.400455C7.25699 0.276837 7.39712 0.177689 7.55282 0.10892C7.70852 0.0401516 7.8766 0.00317574 8.04702 0.00019455C8.21745 -0.00278664 8.38674 0.0282898 8.54479 0.0915709C8.70284 0.154852 8.84641 0.249041 8.96694 0.368518C9.08747 0.487994 9.18249 0.630313 9.24633 0.786981C9.31017 0.943649 9.34152 1.11146 9.33851 1.2804C9.33551 1.44934 9.2982 1.61594 9.22883 1.77028C9.15945 1.92462 9.05943 2.06353 8.93472 2.17871L4.33141 6.7418H20.7307C21.0673 6.7418 21.3902 6.87436 21.6282 7.11032C21.8663 7.34628 22 7.6663 22 8C22 8.33369 21.8663 8.65372 21.6282 8.88968C21.3902 9.12564 21.0673 9.2582 20.7307 9.2582H4.33141L8.93472 13.8213Z" fill="black"/>
</svg>
