<svg width="165" height="47" viewBox="0 0 165 47" fill="none" xmlns="http://www.w3.org/2000/svg">
<path d="M81.4149 33.11L80.3349 38.12H75.1449L76.2249 33.11H74.1249L73.0449 38.12H67.8549L68.9349 33.11H62.8749V27.92H86.7549V33.11H81.4149ZM70.2249 27.2C69.0049 27.2 67.8749 26.89 66.8349 26.27C65.8149 25.65 65.0049 24.81 64.4049 23.75C63.8049 22.69 63.5049 21.53 63.5049 20.27C63.5049 19.01 63.8049 17.85 64.4049 16.79C65.0049 15.71 65.8149 14.86 66.8349 14.24C67.8749 13.62 69.0049 13.31 70.2249 13.31H79.4349C80.6549 13.31 81.7749 13.62 82.7949 14.24C83.8149 14.86 84.6249 15.71 85.2249 16.79C85.8249 17.85 86.1249 19.01 86.1249 20.27C86.1249 21.53 85.8249 22.69 85.2249 23.75C84.6249 24.81 83.8149 25.65 82.7949 26.27C81.7749 26.89 80.6549 27.2 79.4349 27.2H70.2249ZM68.6049 20.27C68.6049 20.77 68.7549 21.2 69.0549 21.56C69.3749 21.92 69.7649 22.1 70.2249 22.1H79.4349C79.8749 22.1 80.2449 21.93 80.5449 21.59C80.8649 21.23 81.0249 20.79 81.0249 20.27C81.0249 19.75 80.8649 19.31 80.5449 18.95C80.2449 18.59 79.8749 18.41 79.4349 18.41H70.2249C69.7849 18.41 69.4049 18.59 69.0849 18.95C68.7649 19.31 68.6049 19.75 68.6049 20.27ZM111.833 13.52V37.58H106.643V13.52H111.833ZM92.513 13.97H98.063L94.583 30.92H104.153V36.11H87.953L92.513 13.97ZM138.719 13.52V37.58H133.529V26.93L131.039 27.47V36.11H114.839V13.97H120.029V21.41H125.849V13.97H131.039V22.28L133.529 21.74V13.52H138.719ZM125.849 30.92V26.6H120.029V30.92H125.849ZM163.244 28.64H158.054V21.71H152.774L147.794 28.64H141.104L149.804 16.52L151.724 13.85H158.414L156.494 16.52H163.244V28.64ZM164.114 32.39V37.58H140.234V32.39H164.114Z" fill="url(#paint0_linear_1370_2966)"/>
<ellipse cx="26.4883" cy="28.6728" rx="18.5986" ry="18.2111" fill="url(#paint1_linear_1370_2966)"/>
<path d="M10.4177 26.9292C9.25541 24.4382 13.3242 17.2424 16.0369 15.1113C17.2769 16.5062 20.2344 17.5007 21.2676 17.6299C21.4613 17.8236 21.8488 18.0174 21.4613 18.986C20.9525 20.258 18.9428 19.9547 17.3929 20.9234C15.843 21.8921 17.0054 22.8608 15.2618 23.0545C13.5182 23.2482 12.937 24.2169 12.3557 24.9918C11.7745 25.7668 12.3717 31.1171 10.4177 26.9292Z" fill="url(#paint2_linear_1370_2966)"/>
<path d="M41.4331 26.7355C40.5032 24.5656 43.1126 24.1523 44.3396 24.2169C45.5794 26.6967 44.8931 31.7726 44.3396 33.5162C43.7584 32.935 42.6345 31.1139 42.7894 30.029C42.9832 28.6728 42.5955 29.4477 41.4331 26.7355Z" fill="url(#paint3_linear_1370_2966)"/>
<path d="M17.8699 38.9407C16.0101 36.7708 16.32 35.7118 16.7075 35.4534C17.6761 34.4848 20.9698 36.2284 22.1322 36.6159C23.2946 37.0033 24.457 38.1657 23.2946 39.3282C22.3647 40.2581 22.3905 41.5238 22.5197 42.0405C22.6488 42.4279 22.7909 43.2416 22.3259 43.3966C21.7447 43.5903 20.1947 41.653 17.8699 38.9407Z" fill="url(#paint4_linear_1370_2966)"/>
<path d="M37.7256 7.74951L36.9507 8.13698L38.1131 11.6242C37.3382 13.1741 38.6943 13.3678 38.5006 13.5616C38.3068 13.7553 38.1131 16.8551 38.5006 18.0175C38.8105 18.9474 40.3088 18.6633 41.0191 18.405C41.5358 18.2112 42.569 17.5913 42.569 16.6613C42.569 15.7314 40.89 13.8199 40.0505 12.9804C40.3827 11.7405 39.4139 11.3013 38.888 11.2368L37.7256 7.74951Z" fill="url(#paint5_linear_1370_2966)" stroke="url(#paint6_linear_1370_2966)"/>
<path d="M39.2754 15.1113C39.4045 15.8863 39.7016 17.5136 39.8566 17.8236" stroke="#E29626" stroke-linecap="round"/>
<path d="M41.019 17.436C40.8899 16.6611 40.5928 15.0337 40.4378 14.7237" stroke="#E29626" stroke-linecap="round"/>
<circle cx="38.5003" cy="12.0117" r="0.387471" fill="#EEC55B" fill-opacity="0.5"/>
<path d="M36.3557 7.99609V13.5207C36.3562 13.7236 36.2725 13.9197 36.1205 14.0719C34.7919 15.3788 31.5469 17.8505 26.0091 17.8505C20.4714 17.8505 17.2287 15.3788 15.8977 14.0719C15.7457 13.9197 15.6621 13.7236 15.6626 13.5207V7.99609" fill="url(#paint7_linear_1370_2966)"/>
<path d="M12.7051 7.50371C11.9045 7.15475 11.9045 6.01927 12.7051 5.67031L25.3138 0.174178C25.5687 0.0631063 25.8582 0.0631062 26.113 0.174178L38.7218 5.67031C39.5223 6.01927 39.5223 7.15475 38.7218 7.50371L26.113 12.9998C25.8582 13.1109 25.5687 13.1109 25.3138 12.9998L12.7051 7.50371Z" fill="url(#paint8_linear_1370_2966)"/>
<path d="M53.8745 27.7572C53.7436 27.4627 53.3402 27.4484 53.1821 27.713L53.1592 27.7572L52.7555 28.6658C52.403 29.4589 51.8167 30.1255 51.075 30.5764L50.9503 30.6496L50.2334 31.0526C50.1765 31.0845 50.1284 31.1302 50.0935 31.1854C50.0587 31.2407 50.0383 31.3038 50.0341 31.3689C50.0299 31.4341 50.0421 31.4993 50.0695 31.5585C50.097 31.6178 50.1388 31.6693 50.1912 31.7082L50.2331 31.7353L50.9503 32.1383C51.7069 32.5639 52.3155 33.2103 52.6947 33.9912L52.7555 34.1222L53.1592 35.0308C53.2902 35.3253 53.6936 35.3396 53.8517 35.0749L53.8745 35.0308L54.2783 34.1222C54.6308 33.329 55.2171 32.6624 55.9587 32.2115L56.0835 32.1383L56.8003 31.7353C56.8573 31.7034 56.9054 31.6578 56.9402 31.6025C56.975 31.5473 56.9955 31.4842 56.9997 31.419C57.0039 31.3538 56.9917 31.2887 56.9643 31.2294C56.9368 31.1701 56.895 31.1187 56.8425 31.0797L56.8007 31.0526L56.0835 30.6496C55.3269 30.2241 54.7183 29.5776 54.3391 28.7968L54.2783 28.6658L53.8745 27.7572ZM50.3315 27.5661C50.1392 28.0031 49.8112 28.3664 49.3961 28.6022C49.3341 28.6371 49.3341 28.7262 49.3961 28.7611C49.8114 28.997 50.1395 29.3604 50.3319 29.7976C50.3392 29.814 50.3512 29.828 50.3663 29.8378C50.3814 29.8476 50.3991 29.8528 50.4171 29.8528C50.4351 29.8528 50.4528 29.8476 50.4679 29.8378C50.483 29.828 50.495 29.814 50.5024 29.7976C50.6947 29.3606 51.0229 28.9973 51.4381 28.7615C51.4521 28.7535 51.4638 28.7419 51.4719 28.728C51.48 28.714 51.4842 28.6982 51.4842 28.6821C51.4842 28.6659 51.48 28.6501 51.4719 28.6361C51.4638 28.6222 51.4521 28.6106 51.4381 28.6026C51.0228 28.3667 50.6946 28.003 50.5024 27.5658C50.495 27.5493 50.483 27.5353 50.4679 27.5255C50.4528 27.5157 50.4351 27.5105 50.4171 27.5105C50.3991 27.5105 50.3814 27.5157 50.3663 27.5255C50.3512 27.5353 50.3392 27.5493 50.3319 27.5658L50.3315 27.5661Z" fill="url(#paint9_linear_1370_2966)"/>
<path d="M0.312311 13.5979C1.69142 11.2097 7.39126 11.6909 14.9676 14.3772C14.5986 14.6627 14.2399 14.9602 13.8943 15.2717C12.7326 14.8743 11.6215 14.5316 10.5701 14.2483C7.87803 13.5229 5.64671 13.1986 4.00274 13.262C2.28772 13.3282 1.58679 13.7925 1.35235 14.1985C1.11814 14.6046 1.06705 15.4433 1.867 16.9612C2.63412 18.4166 4.03042 20.1868 6.00469 22.1555C9.94063 26.0804 15.9747 30.602 23.1766 34.76C30.3784 38.918 37.3115 41.8831 42.6785 43.3294C45.3706 44.0547 47.6019 44.379 49.2459 44.3157C50.9606 44.2495 51.6617 43.786 51.8963 43.3801C52.1307 42.9741 52.1819 42.1349 51.3816 40.6165C50.6145 39.1611 49.2182 37.3909 47.244 35.4221C46.4382 34.6186 45.5428 33.7919 44.5691 32.9465C44.6779 32.5043 44.7704 32.056 44.8455 31.6018C51.0171 36.8501 54.3206 41.5798 52.9354 43.9797L52.8231 44.1565C50.275 47.7362 36.8808 44.0574 22.577 35.7991C8.27335 27.5409 -1.60906 17.7811 0.216608 13.7844L0.312311 13.5979Z" fill="url(#paint10_linear_1370_2966)"/>
<defs>
<linearGradient id="paint0_linear_1370_2966" x1="113.5" y1="13.5" x2="113.5" y2="37.5" gradientUnits="userSpaceOnUse">
<stop stop-color="#2CD7A6"/>
<stop offset="1" stop-color="#59D385"/>
</linearGradient>
<linearGradient id="paint1_linear_1370_2966" x1="26.4883" y1="10.4617" x2="26.4883" y2="46.884" gradientUnits="userSpaceOnUse">
<stop stop-color="#2CD7D4"/>
<stop offset="1" stop-color="#88EFFF"/>
</linearGradient>
<linearGradient id="paint2_linear_1370_2966" x1="15.9205" y1="15.1113" x2="15.9205" y2="28.5138" gradientUnits="userSpaceOnUse">
<stop stop-color="#2CD7A6"/>
<stop offset="1" stop-color="#59D385"/>
</linearGradient>
<linearGradient id="paint3_linear_1370_2966" x1="43.136" y1="24.2107" x2="43.136" y2="33.5162" gradientUnits="userSpaceOnUse">
<stop stop-color="#2CD7A6"/>
<stop offset="1" stop-color="#59D385"/>
</linearGradient>
<linearGradient id="paint4_linear_1370_2966" x1="20.0948" y1="35.1643" x2="20.0948" y2="43.4099" gradientUnits="userSpaceOnUse">
<stop stop-color="#2CD7A6"/>
<stop offset="1" stop-color="#59D385"/>
</linearGradient>
<linearGradient id="paint5_linear_1370_2966" x1="38.5006" y1="15.4989" x2="41.0191" y2="14.3365" gradientUnits="userSpaceOnUse">
<stop offset="0.582927" stop-color="#E5A52C"/>
<stop offset="1" stop-color="#D28220"/>
</linearGradient>
<linearGradient id="paint6_linear_1370_2966" x1="38.5006" y1="15.4989" x2="41.0191" y2="14.3365" gradientUnits="userSpaceOnUse">
<stop offset="0.582927" stop-color="#E5A52C"/>
<stop offset="1" stop-color="#D28220"/>
</linearGradient>
<linearGradient id="paint7_linear_1370_2966" x1="26.0091" y1="7.99609" x2="26.0091" y2="17.8505" gradientUnits="userSpaceOnUse">
<stop stop-color="#3B4040"/>
<stop offset="1" stop-color="#405151"/>
</linearGradient>
<linearGradient id="paint8_linear_1370_2966" x1="25.7134" y1="0" x2="25.7134" y2="13.174" gradientUnits="userSpaceOnUse">
<stop stop-color="#3F504F"/>
<stop offset="1" stop-color="#405151"/>
</linearGradient>
<linearGradient id="paint9_linear_1370_2966" x1="53.1751" y1="27.5105" x2="53.1751" y2="35.2631" gradientUnits="userSpaceOnUse">
<stop stop-color="#2CD7A6"/>
<stop offset="1" stop-color="#59D385"/>
</linearGradient>
<linearGradient id="paint10_linear_1370_2966" x1="52.2545" y1="44.3659" x2="48.5117" y2="8.17287" gradientUnits="userSpaceOnUse">
<stop stop-color="#2CD7A6"/>
<stop offset="1" stop-color="#59D385"/>
</linearGradient>
</defs>
</svg>
