<svg width="32" height="35" viewBox="0 0 32 35" fill="none" xmlns="http://www.w3.org/2000/svg">
<g filter="url(#filter0_d_342_1673)">
<path d="M30.6907 27.9128H27.5975V24.709C27.5975 24.5328 27.4583 24.3886 27.2882 24.3886H25.4323C25.2622 24.3886 25.123 24.5328 25.123 24.709V27.9128H22.0298C21.8597 27.9128 21.7205 28.057 21.7205 28.2332V30.1554C21.7205 30.3317 21.8597 30.4758 22.0298 30.4758H25.123V33.6796C25.123 33.8558 25.2622 34 25.4323 34H27.2882C27.4583 34 27.5975 33.8558 27.5975 33.6796V30.4758H30.6907C30.8608 30.4758 31 30.3317 31 30.1554V28.2332C31 28.057 30.8608 27.9128 30.6907 27.9128ZM10.6431 16.9558C10.6083 16.6074 10.5889 16.255 10.5889 15.8986C10.5889 15.2618 10.6469 14.6411 10.7552 14.0364C10.7823 13.8922 10.7088 13.744 10.5812 13.684C10.0554 13.4397 9.57205 13.1033 9.15447 12.6788C8.66242 12.1846 8.27523 11.5896 8.0176 10.9318C7.75996 10.274 7.63754 9.5678 7.65815 8.85824C7.69295 7.57272 8.19172 6.35127 9.06168 5.43018C10.0167 4.41698 11.3004 3.86433 12.6652 3.88035C13.8986 3.89236 15.0895 4.38495 15.9904 5.25798C16.2958 5.55433 16.5588 5.88272 16.7791 6.23514C16.8565 6.35928 17.0073 6.41134 17.1387 6.36329C17.8192 6.119 18.5384 5.94679 19.2769 5.8667C19.4934 5.84267 19.6171 5.60239 19.5205 5.40215C18.2639 2.8271 15.6965 1.049 12.7271 1.00094C8.44304 0.932859 4.87043 4.57317 4.87043 9.01042C4.87043 11.5254 5.98784 13.7681 7.73934 15.2378C6.50981 15.8265 5.37694 16.6395 4.39485 17.6567C2.27603 19.8472 1.07743 22.7387 1.0001 25.8263C0.999065 25.8691 1.0063 25.9116 1.02139 25.9514C1.03647 25.9912 1.05909 26.0275 1.08791 26.0581C1.11674 26.0887 1.15119 26.113 1.18923 26.1296C1.22727 26.1462 1.26814 26.1547 1.30941 26.1547H3.4785C3.64476 26.1547 3.78395 26.0186 3.78782 25.8463C3.86128 23.5236 4.7699 21.349 6.36675 19.6991C7.50349 18.5217 8.89542 17.7047 10.4149 17.3082C10.5619 17.2642 10.6624 17.116 10.6431 16.9558ZM28.0615 15.8986C28.0615 11.5174 24.6629 7.95717 20.4484 7.88909C16.1644 7.82101 12.5956 11.4613 12.5956 15.8986C12.5956 18.4136 13.7169 20.6562 15.4645 22.1259C14.2223 22.7224 13.0914 23.5413 12.1239 24.5448C10.0051 26.7354 8.80649 29.6268 8.72916 32.7105C8.72813 32.7532 8.73537 32.7957 8.75045 32.8355C8.76553 32.8753 8.78815 32.9116 8.81698 32.9422C8.8458 32.9728 8.88025 32.9971 8.91829 33.0137C8.95633 33.0303 8.9972 33.0389 9.03848 33.0389H11.2037C11.37 33.0389 11.5091 32.9027 11.513 32.7305C11.5865 30.4077 12.4951 28.2332 14.0919 26.5832C15.7584 24.8572 17.97 23.9081 20.3286 23.9081C24.5971 23.9081 28.0615 20.3238 28.0615 15.8986ZM23.8277 19.5229C22.892 20.492 21.6509 21.0246 20.3286 21.0246C19.0062 21.0246 17.7651 20.492 16.8294 19.5229C16.3625 19.0418 15.9936 18.4685 15.7445 17.837C15.4954 17.2055 15.3713 16.5286 15.3795 15.8465C15.3911 14.533 15.8976 13.2635 16.783 12.3223C17.711 11.3372 18.9521 10.7885 20.2783 10.7725C21.589 10.7605 22.8611 11.2891 23.7968 12.2382C24.7557 13.2114 25.2815 14.5129 25.2815 15.8986C25.2776 17.2682 24.7634 18.5537 23.8277 19.5229Z" fill="white"/>
</g>
<defs>
<filter id="filter0_d_342_1673" x="0" y="0" width="32" height="35" filterUnits="userSpaceOnUse" color-interpolation-filters="sRGB">
<feFlood flood-opacity="0" result="BackgroundImageFix"/>
<feColorMatrix in="SourceAlpha" type="matrix" values="0 0 0 0 0 0 0 0 0 0 0 0 0 0 0 0 0 0 127 0" result="hardAlpha"/>
<feOffset/>
<feGaussianBlur stdDeviation="0.5"/>
<feComposite in2="hardAlpha" operator="out"/>
<feColorMatrix type="matrix" values="0 0 0 0 0.0784314 0 0 0 0 0.705882 0 0 0 0 0.439216 0 0 0 0.5 0"/>
<feBlend mode="normal" in2="BackgroundImageFix" result="effect1_dropShadow_342_1673"/>
<feBlend mode="normal" in="SourceGraphic" in2="effect1_dropShadow_342_1673" result="shape"/>
</filter>
</defs>
</svg>
